<svg width="243" height="81" viewBox="0 0 243 81" fill="none" xmlns="http://www.w3.org/2000/svg">
<path fill-rule="evenodd" clip-rule="evenodd" d="M74.5947 48.0346C77.2663 47.5529 79.643 49.842 78.8424 52.4277C73.719 68.9737 58.2159 81 39.8865 81C20.3923 81 4.09512 67.3968 0.0815811 49.2208C-0.237413 47.7762 0.398355 46.3007 1.65147 45.5083C13.3591 38.1048 32.5519 31.1142 41.6583 28.2699C29.7784 27.7332 15.4299 29.5477 5.74446 31.2209C3.00439 31.6943 0.619696 29.2764 1.57159 26.672C7.25809 11.1135 22.2664 0 39.8865 0C57.8808 0 73.1511 11.5905 78.551 27.6693C79.0537 29.1663 78.4763 30.7966 77.1606 31.6755C64.2182 40.3203 41.5781 48.6231 31.0273 51.9336C45.0286 52.5689 63.2989 50.071 74.5947 48.0346Z" fill="white"/>
<path d="M98 54.6406L121.652 26.3516H98.8565V17.1875H134.104V26.3516L110.913 54.6406H134.894V64.2031H98V54.6406Z" fill="white"/>
<path d="M160.779 60.1523H160.647C159.549 61.8789 158.077 63.1185 156.233 63.8711C154.432 64.6237 152.521 65 150.501 65C149.008 65 147.558 64.7786 146.153 64.3359C144.791 63.9375 143.583 63.3177 142.529 62.4766C141.475 61.6354 140.64 60.5951 140.026 59.3555C139.411 58.1159 139.103 56.6771 139.103 55.0391C139.103 53.1797 139.433 51.6081 140.091 50.3242C140.794 49.0404 141.717 47.9779 142.859 47.1367C144.044 46.2956 145.384 45.6536 146.877 45.2109C148.371 44.724 149.908 44.3698 151.489 44.1484C153.114 43.9271 154.717 43.7943 156.299 43.75C157.924 43.7057 159.417 43.6836 160.779 43.6836C160.779 41.9128 160.142 40.5182 158.868 39.5C157.638 38.4375 156.167 37.9063 154.454 37.9063C152.829 37.9063 151.335 38.2604 149.974 38.9688C148.656 39.6328 147.47 40.5625 146.416 41.7578L141.146 36.3125C142.99 34.5859 145.142 33.3021 147.602 32.4609C150.062 31.5755 152.609 31.1328 155.245 31.1328C158.143 31.1328 160.515 31.5091 162.36 32.2617C164.249 32.9701 165.742 34.0326 166.84 35.4492C167.982 36.8659 168.772 38.6146 169.212 40.6953C169.651 42.7318 169.871 45.1003 169.871 47.8008V64.2031H160.779V60.1523ZM158.341 50.0586C157.594 50.0586 156.65 50.1029 155.508 50.1914C154.41 50.2357 153.334 50.4128 152.28 50.7227C151.27 51.0326 150.391 51.4974 149.644 52.1172C148.942 52.737 148.59 53.6003 148.59 54.707C148.59 55.9023 149.095 56.7878 150.106 57.3633C151.116 57.9388 152.17 58.2266 153.268 58.2266C154.234 58.2266 155.157 58.0937 156.035 57.8281C156.957 57.5625 157.77 57.1862 158.473 56.6992C159.176 56.2122 159.725 55.5924 160.12 54.8398C160.559 54.0872 160.779 53.2018 160.779 52.1836V50.0586H158.341Z" fill="white"/>
<path d="M209.671 64.2031H200.579V59.9531H200.447C200.052 60.5286 199.525 61.1263 198.866 61.7461C198.251 62.3216 197.505 62.8529 196.626 63.3398C195.792 63.8268 194.847 64.2253 193.793 64.5352C192.783 64.8451 191.729 65 190.631 65C188.259 65 186.107 64.6016 184.174 63.8047C182.242 62.9635 180.573 61.8125 179.167 60.3516C177.806 58.8464 176.751 57.0755 176.005 55.0391C175.258 53.0026 174.885 50.7669 174.885 48.332C174.885 46.0742 175.214 43.9271 175.873 41.8906C176.576 39.8099 177.542 37.9727 178.772 36.3789C180.046 34.7852 181.583 33.5234 183.384 32.5938C185.185 31.6198 187.227 31.1328 189.511 31.1328C191.575 31.1328 193.486 31.4648 195.243 32.1289C197.043 32.7487 198.515 33.8333 199.657 35.3828H199.789V14H209.671V64.2031ZM200.579 48.0664C200.579 45.6315 199.876 43.6615 198.471 42.1563C197.109 40.651 195.177 39.8984 192.673 39.8984C190.17 39.8984 188.215 40.651 186.81 42.1563C185.448 43.6615 184.767 45.6315 184.767 48.0664C184.767 50.5013 185.448 52.4714 186.81 53.9766C188.215 55.4818 190.17 56.2344 192.673 56.2344C195.177 56.2344 197.109 55.4818 198.471 53.9766C199.876 52.4714 200.579 50.5013 200.579 48.0664Z" fill="white"/>
<path d="M235.687 41.4258C234.238 39.6107 232.327 38.7031 229.955 38.7031C229.121 38.7031 228.308 38.9023 227.518 39.3008C226.727 39.6992 226.332 40.3854 226.332 41.3594C226.332 42.1563 226.727 42.7539 227.518 43.1523C228.352 43.5065 229.384 43.8385 230.614 44.1484C231.888 44.4141 233.227 44.724 234.633 45.0781C236.082 45.388 237.422 45.8971 238.652 46.6055C239.925 47.3138 240.958 48.2878 241.748 49.5273C242.583 50.7227 243 52.3385 243 54.375C243 56.4557 242.539 58.1823 241.616 59.5547C240.738 60.8828 239.596 61.9674 238.191 62.8086C236.785 63.6055 235.204 64.1589 233.447 64.4687C231.69 64.8229 229.955 65 228.242 65C226.002 65 223.74 64.6901 221.456 64.0703C219.172 63.4063 217.24 62.2552 215.659 60.6172L221.654 53.9102C222.576 55.0612 223.587 55.9466 224.685 56.5664C225.827 57.1419 227.144 57.4297 228.638 57.4297C229.779 57.4297 230.812 57.2747 231.734 56.9648C232.656 56.6107 233.118 55.9909 233.118 55.1055C233.118 54.2643 232.7 53.6445 231.866 53.2461C231.075 52.8034 230.043 52.4492 228.769 52.1836C227.539 51.8737 226.2 51.5638 224.75 51.2539C223.345 50.8997 222.005 50.3906 220.732 49.7266C219.502 49.0625 218.47 48.1328 217.635 46.9375C216.844 45.6979 216.449 44.0599 216.449 42.0234C216.449 40.1198 216.823 38.4818 217.569 37.1094C218.36 35.737 219.37 34.6081 220.6 33.7227C221.874 32.8372 223.323 32.1953 224.948 31.7969C226.573 31.3542 228.22 31.1328 229.889 31.1328C231.998 31.1328 234.128 31.4427 236.28 32.0625C238.432 32.6823 240.255 33.7891 241.748 35.3828L235.687 41.4258Z" fill="white"/>
</svg>
